#!OML:ASF F:\VICON\USERDATA\INSTALL\rory3\rory3.ASF
:FULLY-SPECIFIED
:DEGREES
9
root -7.410899412545491 17.570314326592865 2.6293544075256188 -6.360951572812425 70.5190846234643 -21.60261123374582
lfemur -22.04699893808884 14.769691249714272 -2.27672347560742
ltibia 32.30439806506022
lfoot -13.220584499690116 7.844298614749597
ltoes -27.558689876314883
rfemur -36.11648706323862 3.9725063750235585 16.343604734174967
rtibia 33.57469179182833
rfoot -10.013388694649896 6.389544242750937
rtoes 0.16692998762940547
lowerback 3.067201684054446 1.4604212158361007 -8.85623353976701
upperback 3.186528753219963 1.8129413375333956 1.961479039738674
thorax 1.2681930371211614 0.743068293923821 6.995970530615405
lowerneck -13.7501943808064 4.501816240199634 1.7003031408679226
upperneck 38.513678893468196 9.844455459922509 -4.597398408508328
head 16.516076746613642 4.10914551631812 -0.4468119736136985
lclavicle -7.0142054148000365e-15 -5.153636158975168e-15
lhumerus 25.22191182294894 -77.82848328559854 70.54949670362986
lradius 25.781107839476746
lwrist 33.948293259776605
lhand 16.03537703632105 61.03717832728839
lfingers 7.125020000000003
lthumb -139.1750228549654 266.0090077220953
rclavicle -7.0142054148000365e-15 -5.153636158975168e-15
rhumerus -9.514416650262916 -1.7858150672601472 -104.06898124740749
rradius 38.27770853138898
rwrist -58.36758118736631
rhand -39.769503100478495 -12.91987824107865
rfingers 7.125020000000003
rthumb -12.745503076936203 -42.5108778554052
10
root -7.423839212839754 17.573914124402602 2.7429239881314045 -6.672811534083621 67.30818577146843 -22.015211181431027
lfemur -20.783800021556836 16.255290403052474 -0.703922916093461
ltibia 32.58689768472104
lfoot -12.675984778276064 9.564557889966082
ltoes -29.059089486854315
rfemur -36.216187017240216 4.612555660029 18.321201955503863
rtibia 33.02639242744423
rfoot -9.877788772161855 8.619313401915571
rtoes 0.2329469404336919
lowerback 2.7347122555693817 0.817646875021496 -9.342453161694852
upperback 3.216778707423382 0.9860769580016133 1.3823502713190212
thorax 1.646582144091508 0.30504097669527175 6.68692115041854
lowerneck -13.114595526897137 6.00157535843211 2.9671388328101562
upperneck 37.56327973424632 11.781894657263479 -5.256437585991616
head 16.126377772349834 4.992214734418833 -0.6340463345014651
lclavicle -7.014204993500504e-15 -5.153635875945426e-15
lhumerus 34.08310910633919 -78.38728311615937 62.29360099451589
lradius 25.789307834532472
lwrist 30.59839521080815
lhand 16.69717649643851 55.981280980521305
lfingers 7.125020000000003
lthumb -138.5530233832714 260.75400800466986
rclavicle -7.014204993500504e-15 -5.153635875945426e-15
rhumerus -10.28848647134727 -1.262075281480353 -103.2609817043288
rradius 41.900907214933184
rwrist -61.035079970076
rhand -42.99990120804688 -11.720079078925473
rfingers 7.125020000000003
rthumb -15.8582011790797 -41.090578827030185
11
root -7.430029117308184 17.55511518028508 2.861403550605419 -6.532531551504391 64.29888684739377 -21.76101121366152
lfemur -18.850301679952477 17.036289957950995 0.782137722863264
ltibia 32.9781971579008
lfoot -13.183084518872953 10.829887356854393
ltoes -28.326289677067965
rfemur -36.17728703518745 5.183385022359551 19.987199614653306
rtibia 32.820392666249425
rfoot -9.27480911683868 11.188792432977179
rtoes 2.980341976311486
lowerback 2.496992664184778 -0.23672404368779976 -10.301192416203346
upperback 3.359038492050728 -0.39157500822635827 1.155630753462747
thorax 2.2032708302600663 -0.43589186838178473 7.009850502778917
lowerneck -12.678596313076442 7.866594261913967 3.008918690731723
upperneck 36.514780661809226 14.529693518881736 -5.712937016255518
head 15.727978820985435 6.071573778717911 -0.3712196353743151
lclavicle -7.014205269087273e-15 -5.153636046661791e-15
lhumerus 44.12990602625595 -77.74408331119017 53.441105595476216
lradius 25.634307927990953
lwrist 27.53739699358006
lhand 15.105477794913993 50.573083818633954
lfingers 7.125020000000003
lthumb -140.0490221126189 255.81400827030666
rclavicle -7.014205269087273e-15 -5.153636046661791e-15
rhumerus -10.935686321755874 -0.35079765421141396 -102.12198234842971
rradius 45.79750579914012
rwrist -62.74727918872837
rhand -45.136199956560475 -13.11167810714047
rfingers 7.125020000000003
rthumb -17.91469992520303 -42.306477995234815
12
root -7.4457188751611225 17.54501574754109 3.0030530275166676 -6.676431533634101 61.4644878607866 -22.13741116593708
lfemur -17.856002532780387 17.891589470504936 2.6174320419662234
ltibia 33.62969628076462
lfoot -13.320884448382525 11.46008709133731
ltoes -22.455591200932563
rfemur -36.2218870146104 6.206233879742299 21.795797073439427
rtibia 32.564692962669255
rfoot -8.738829423216798 13.277391645376253
rtoes 5.786279970336743
lowerback 2.0647634071421512 -1.3060559470541557 -10.923991931930106
upperback 3.227408691330206 -1.7721259722789573 0.8151784774715608
thorax 2.598129898359935 -1.152105751989328 6.9861705502694225
lowerneck -11.74249800101783 9.543643275910739 3.365197479154226
upperneck 35.28658174834493 16.860792553133916 -6.175756438631726
head 15.162480309447886 7.070872893904788 -0.2752544754854309
lclavicle -7.014204895302426e-15 -5.153636289258673e-15
lhumerus 53.19620324676816 -76.9838835416976 45.40430977248818
lradius 25.92270775409792
lwrist 24.075399009900323
lhand 12.960079545086275 47.34488551272726
lfingers 7.125020000000003
lthumb -142.07202039435 253.1640084128034
rclavicle -7.014204895302426e-15 -5.153636289258673e-15
rhumerus -11.610486165785147 -0.5691485649014467 -101.08198293654631
rradius 49.98710427688818
rwrist -63.23467896630767
rhand -48.71709785879908 -8.962731004444098
rfingers 7.125020000000003
rthumb -21.357297826201908 -37.80578107415669
13
root -7.415719338157418 17.534116359728266 3.1245025790229857 -7.409071442649406 58.40348895519648 -22.007711182382025
lfemur -15.300904724332863 18.63338904774392 4.345060459677503
ltibia 34.201995510258044
lfoot -12.400284919308255 12.900786484338422
ltoes -27.609889863024893
rfemur -34.96248759565751 7.285612673975835 23.424394785138574
rtibia 32.42199312809399
rfoot -8.06500980838729 15.418990837789307
rtoes 10.00330695556965
lowerback 2.049793432873987 -2.0825351507501972 -11.120591779059016
upperback 3.5213282463538986 -2.7640152279782266 0.17159384612431383
thorax 3.0980487185100962 -1.6752949364725114 6.383771758389166
lowerneck -10.95039942930367 11.122092347878324 4.223284561105166
upperneck 34.22618268643531 18.951091687146793 -6.658755835822236
head 14.798781266749025 8.030942043827178 -0.297024284905236
lclavicle -7.014205535171104e-15 -5.153635974780994e-15
lhumerus 62.76410031350298 -76.15118379418843 37.20261403520453
lradius 25.80040782783966
lwrist 21.63430043163326
lhand 14.334978423471691 44.19118716772452
lfingers 7.125020000000003
lthumb -140.77502149597856 249.64600860197575
rclavicle -7.014205535171104e-15 -5.153635974780994e-15
rhumerus -11.726786138903876 -1.4543652028298997 -99.9967835502234
rradius 54.953002472574994
rwrist -63.057379047216855
rhand -51.73369609161566 -7.388242103945323
rfingers 7.125020000000003
rthumb -24.252196061141102 -35.874482395356026
14
root -7.420509264232344 17.526216803423562 3.282271996405876 -7.913291380031168 55.51688998725261 -21.953511189254016
lfemur -13.014006685845642 19.455488579218997 6.359518614689053
ltibia 34.81119469007176
lfoot -11.90868517078244 12.925586473889648
ltoes -28.08688973920935
rfemur -34.026788027359785 8.534151279242172 25.13339238386991
rtibia 32.39959315406115
rfoot -7.704170014651444 16.814990311364575
rtoes 12.514605160233941
lowerback 2.1098333296716274 -2.9359542755419143 -11.9648911225531
upperback 3.6510880499054634 -3.883404388003236 -0.22176631735249397
thorax 3.4632778565390465 -2.270834008180924 6.398041729770528
lowerneck -10.379200459270685 12.653191447684748 4.4713537175101665
upperneck 33.01198376058587 21.00359083681973 -6.962075457262861
head 14.348782451201911 8.933941244281229 -0.15424953480316073
lclavicle -7.014205110703899e-15 -5.15363586696022e-15
lhumerus 67.94619872480814 -73.9027844759469 34.12311563573064
lradius 25.35900809398525
lwrist 17.445902871019687
lhand 16.093376989005883 40.188189268417005
lfingers 7.125020000000003
lthumb -139.1200229016805 245.14300884411333
rclavicle -7.014205110703899e-15 -5.15363586696022e-15
rhumerus -11.569886175169323 -2.2579248741576645 -99.04538408823701
rradius 59.50010082042882
rwrist -61.46917977197823
rhand -55.15469408752682 -4.393754195063959
rfingers 7.125020000000003
rthumb -27.528094063779264 -32.401184771435254
15
root -7.4167393224155465 17.53131651698736 3.4371614244241098 -8.568231298695906 53.40619074189847 -22.146211164821224
lfemur -11.416208056305717 20.49268798810587 8.34112679978703
ltibia 35.77059339839954
lfoot -10.302485992421499 12.052386841788085
ltoes -31.296488906089618
rfemur -32.78958859816454 9.127670616225894 26.756690103015927
rtibia 31.977593643263997
rfoot -6.822900518405051 18.206489786636666
rtoes 17.358801697101157
lowerback 2.375982872188091 -3.932993253046927 -12.567190654220134
upperback 3.533538227868739 -5.241903368603349 -0.6059325003812999
thorax 3.4895977944218153 -2.9487629514647846 6.285291955891873
lowerneck -9.166522645931042 13.910190708645356 5.1295814791115735
upperneck 31.576085030864874 22.715290127682202 -7.777634439400937
head 13.806883877546394 9.739450531056118 -0.37604259315252886
lclavicle -7.014205452811785e-15 -5.153636334184137e-15
lhumerus 74.60189668434653 -72.22168498568911 29.376418102760113
lradius 25.62090793607056
lwrist 15.331804102302971
lhand 10.548681512255753 35.28109184356266
lfingers 7.125020000000003
lthumb -144.3530184569445 241.68400903011204
rclavicle -7.014205452811785e-15 -5.153636334184137e-15
rhumerus -11.357086224355037 -3.424664396937505 -97.8327847739584
rradius 64.04089917057169
rwrist -59.14378083315407
rhand -57.05899297195056 -1.2862963650721184
rfingers 7.125020000000003
rthumb -29.347792954282838 -28.989687105237063
